<svg width="34" height="33" viewBox="0 0 34 33" fill="none" xmlns="http://www.w3.org/2000/svg">
<g id="Group 48097133">
<path id="Vector" d="M28.6362 32C29.4395 32 30.0907 31.3399 30.0907 30.5257C30.0907 29.7115 29.4395 29.0515 28.6362 29.0515C27.8329 29.0515 27.1816 29.7115 27.1816 30.5257C27.1816 31.3399 27.8329 32 28.6362 32Z" stroke="#616161" stroke-width="2" stroke-linecap="round" stroke-linejoin="round"/>
<path id="Vector_2" d="M12.6362 32C13.4395 32 14.0907 31.3399 14.0907 30.5257C14.0907 29.7115 13.4395 29.0515 12.6362 29.0515C11.8329 29.0515 11.1816 29.7115 11.1816 30.5257C11.1816 31.3399 11.8329 32 12.6362 32Z" stroke="#616161" stroke-width="2" stroke-linecap="round" stroke-linejoin="round"/>
<path id="Vector_3" d="M1 1.04065H6.81818L10.7164 20.7809C10.8494 21.4597 11.2137 22.0694 11.7455 22.5033C12.2774 22.9372 12.9428 23.1677 13.6255 23.1545H27.7636C28.4463 23.1677 29.1117 22.9372 29.6436 22.5033C30.1754 22.0694 30.5397 21.4597 30.6727 20.7809L33 8.41192H8.27273" stroke="#616161" stroke-width="2" stroke-linecap="round" stroke-linejoin="round"/>
</g>
</svg>
