<svg width="64" height="64" viewBox="0 0 64 64" fill="none" xmlns="http://www.w3.org/2000/svg">
<g id="delivery-man-_1_ 1">
<g id="Group">
<path id="Vector" d="M18.1251 1.13743C16.5251 1.31243 14.5876 1.82493 13.4251 2.36243C11.6376 3.19993 10.5126 4.23743 9.7501 5.73743C9.1251 6.97493 9.0876 7.24993 9.0376 10.8749C8.9751 14.5124 9.0126 14.8624 9.5501 15.6499L9.8501 16.0999L9.4501 16.8874C9.0876 17.6124 9.0626 17.7749 9.0626 18.9374C9.0751 19.9874 9.1126 20.2874 9.3626 20.7874C9.7501 21.5874 10.7251 22.4374 11.5376 22.6999C12.1751 22.8999 12.2001 22.9124 12.5501 23.7749C12.7376 24.2624 13.1501 25.0124 13.4501 25.4624C13.7501 25.9124 14.0001 26.3124 14.0001 26.3499C14.0001 26.3874 13.1251 27.2999 12.0626 28.3874C9.9626 30.5249 9.8876 30.6624 10.3251 31.5124L10.5126 31.8999L8.2251 34.2249C6.9626 35.5124 5.5751 37.0124 5.1376 37.5624C3.3001 39.8374 2.2001 41.9499 2.0501 43.4749L1.9751 44.1874L4.5001 49.2499C5.8876 52.0374 7.1376 54.4374 7.2751 54.5874C7.5251 54.8624 8.0751 55.0124 9.4126 55.1874L10.0251 55.2749L9.9751 58.3374L9.9376 61.3999L10.2376 61.6374C10.6376 61.9624 11.2626 61.9499 11.6001 61.5874C11.8501 61.3249 11.8751 61.1624 11.8751 59.6749V58.0624L12.3251 58.5874C13.4251 59.9124 15.5751 61.2749 17.1876 61.6874C19.6501 62.3124 23.1626 61.4999 32.6751 58.1124C34.3876 57.4999 35.8001 56.9999 35.8251 56.9999C35.8376 56.9999 35.8751 58.0124 35.9001 59.2624C35.9376 61.4624 35.9501 61.5249 36.2376 61.7624C36.6376 62.0874 37.2001 62.0624 37.5626 61.6874C37.8751 61.3874 37.8751 61.3749 37.8751 58.9499V56.5124L38.6001 56.3749C38.9876 56.2999 39.4001 56.1999 39.5001 56.1624C39.6001 56.1124 42.3376 56.0374 45.5626 55.9999C51.1751 55.9249 51.4751 55.8999 52.1876 55.6499C53.7376 55.0749 54.6751 54.0249 54.8376 52.6249L54.9126 51.9999H58.5876H62.2626L62.5626 51.6874L62.8751 51.3874V37.3874V23.3874L62.6001 23.1999C62.3501 23.0249 60.7501 22.9999 47.9626 22.9999H33.6126L33.3126 23.3124L33.0001 23.6124V27.1249C33.0001 30.1874 32.9751 30.6249 32.8126 30.6249C32.7001 30.6249 32.1501 30.5124 31.5751 30.3624L30.5376 30.0999L29.1876 28.7499L27.8501 27.3999L28.4126 26.6999C29.8251 24.9874 30.7126 22.0374 30.9501 18.3999L31.0376 17.0374L32.2251 16.9499C35.3876 16.7249 37.6626 15.6249 38.3751 13.9749C39.1876 12.0999 37.9251 9.53743 35.6626 8.46243L34.8126 8.06243L32.3626 8.02493L29.9001 7.97493L29.7001 7.14993C29.1501 4.93743 27.6126 2.98743 25.6251 2.01243C25.0376 1.72493 24.1751 1.41243 23.6876 1.29993C22.6001 1.06243 19.5501 0.974934 18.1251 1.13743ZM23.3126 3.31243C24.5501 3.62493 25.5126 4.17493 26.3001 4.98743C26.9626 5.69993 27.6251 6.83743 27.8126 7.64993L27.9001 7.97493L25.3501 8.02493C23.1126 8.07493 22.7251 8.11243 22.0251 8.36243C20.3751 8.96243 18.5876 10.4624 17.1001 12.4999C16.2751 13.6249 15.4251 14.4374 14.7126 14.7624C14.3126 14.9374 13.9001 14.9999 12.9001 14.9999C11.6876 14.9999 11.6001 14.9874 11.3001 14.6874L10.9876 14.3624L11.0251 11.0249L11.0626 7.67493L11.5376 6.71243C12.2626 5.26243 13.3501 4.43743 15.4751 3.74993C17.1251 3.21243 17.2376 3.23743 16.6626 3.96243C15.7376 5.17493 15.0001 7.31243 15.0001 8.81243C15.0001 9.24993 15.0751 9.46243 15.3126 9.68743C15.9626 10.3499 17.0001 9.87493 17.0001 8.91243C17.0001 8.11243 17.3376 6.82493 17.7501 6.01243C18.4501 4.62493 19.3626 3.83743 20.8501 3.36243C21.7376 3.08743 22.3626 3.07493 23.3126 3.31243ZM27.4876 10.9624C26.9751 11.4999 26.2876 12.2749 25.9751 12.6874C25.2376 13.6624 24.3626 14.4624 23.7126 14.7624C23.2501 14.9624 22.8751 14.9999 20.4751 14.9999H17.7626L18.6876 13.7749C19.7626 12.3499 20.6626 11.4499 21.6251 10.8374C22.8376 10.0749 23.1626 10.0124 25.9251 9.99993H28.4126L27.4876 10.9624ZM34.4126 10.1374C35.3876 10.3999 36.6251 11.8874 36.6251 12.7624C36.6251 13.3749 35.9876 14.0124 35.0376 14.3749C34.2126 14.6749 32.4501 14.9999 31.5751 14.9999H30.9251L30.6501 13.3999C30.5001 12.5249 30.3376 11.6624 30.3001 11.4749C30.2251 11.1624 30.2876 11.1124 31.1126 10.6874C32.4501 10.0249 33.4251 9.86243 34.4126 10.1374ZM28.7126 13.7124C28.9626 14.9499 29.0626 18.5874 28.8876 19.8999C28.5376 22.5374 27.6376 24.6999 26.3751 25.9874C24.6251 27.7624 21.5626 28.4499 19.1376 27.6124C18.1126 27.2624 16.6626 26.2874 15.9376 25.4624C15.3001 24.7249 14.6251 23.5249 14.1751 22.2874C13.8376 21.3499 13.5126 21.0124 12.9376 20.9999C12.3376 20.9999 11.4876 20.4999 11.2251 19.9999C10.8251 19.2249 10.9876 17.7874 11.5376 17.2749C11.8126 17.0124 11.8876 17.0124 17.8126 16.9749L23.8126 16.9374L24.6501 16.5249C25.7251 15.9999 26.6751 15.1249 27.6501 13.7874C28.0626 13.2124 28.4376 12.7749 28.4751 12.8124C28.5126 12.8374 28.6126 13.2499 28.7126 13.7124ZM43.0001 28.5624C43.0001 31.4624 43.0376 32.1999 43.1876 32.4874C43.5626 33.2374 43.8751 33.1874 46.1751 32.0499L48.0876 31.0999L49.9751 32.0499C51.0251 32.5749 51.9876 32.9999 52.1251 32.9999C52.2751 32.9999 52.5251 32.8624 52.6876 32.6874L53.0001 32.3874V28.6874V24.9999H57.0001H61.0001V37.4999V49.9999H55.3376H49.6626L49.4626 49.2499C49.2001 48.3124 48.6001 47.6249 47.7376 47.2624C47.1251 46.9874 47.0001 46.9874 42.7751 47.0249L38.4376 47.0749L36.9751 47.4624C36.1626 47.6749 35.3876 47.8874 35.2501 47.9374C35.0001 48.0124 35.0001 47.9999 35.0001 36.5124V24.9999H39.0001H43.0001V28.5624ZM51.0001 27.6874V30.3749L49.6251 29.6874C48.8751 29.3124 48.1376 28.9999 48.0001 28.9999C47.8626 28.9999 47.1251 29.3124 46.3751 29.6874L45.0001 30.3749V27.6874V24.9999H48.0001H51.0001V27.6874ZM17.3751 29.7874L19.5001 31.1999L18.1501 32.8999L16.8001 34.5999L14.7501 32.9124C13.6126 31.9874 12.6376 31.1749 12.5626 31.1124C12.4876 31.0374 12.9126 30.5249 13.7501 29.6874C14.4751 28.9624 15.1001 28.3749 15.1501 28.3749C15.2126 28.3749 16.2126 29.0124 17.3751 29.7874ZM28.3251 32.0999C28.0751 32.5999 27.8251 32.9999 27.7751 32.9999C27.7251 32.9999 27.4751 32.6999 27.2251 32.3374C26.9751 31.9874 26.6126 31.4874 26.4376 31.2374L26.1126 30.7874L26.4001 29.9499L26.6876 29.1249L27.7251 30.1624L28.7751 31.2124L28.3251 32.0999ZM24.3126 29.7749C24.2626 29.9374 24.0001 30.6499 23.7251 31.3749C23.4501 32.0999 23.2001 32.7874 23.1626 32.8999C23.1251 33.0249 23.0501 33.1249 23.0126 33.1249C22.9626 33.1249 22.7001 32.5749 22.4376 31.8999C22.1751 31.2374 21.8001 30.5374 21.6251 30.3624L21.3001 30.0249L22.1751 29.9374C22.6626 29.8874 23.3126 29.7749 23.6251 29.6874C24.4126 29.4749 24.4001 29.4749 24.3126 29.7749ZM31.6001 32.5124L32.7501 32.7749V40.7499V48.7124L27.7251 50.3874C23.1001 51.9249 22.6126 52.0624 21.8126 52.0499C20.8251 52.0374 20.0626 51.7499 19.3251 51.0874C19.0501 50.8374 18.1001 49.3499 16.7751 47.0624C15.6126 45.0749 14.5126 43.3374 14.3376 43.2124C13.9751 42.9249 13.5126 42.9874 13.1251 43.3749C12.6501 43.8499 12.7876 44.2624 14.3251 46.7874L15.7876 49.1749L15.5876 49.7124C14.7001 52.0874 12.4001 53.5124 9.7001 53.3374C9.1626 53.2999 8.6751 53.2249 8.6251 53.1624C8.5626 53.1124 7.5001 50.9624 6.2376 48.3999L3.9626 43.7249L4.1876 43.0249C4.7876 41.0874 5.8751 39.6124 9.2376 36.2124C10.7876 34.6499 12.0751 33.3749 12.1251 33.3749C12.1626 33.3749 13.1751 34.1874 14.3751 35.1874C16.4876 36.9374 16.7876 37.1249 17.3126 36.9249C17.4126 36.8749 18.1876 35.9749 19.0251 34.9124C19.8501 33.8499 20.5751 33.0249 20.6251 33.0874C20.6876 33.1374 21.0251 33.9124 21.3876 34.8124C21.7626 35.6999 22.1626 36.5374 22.2751 36.6499C22.6126 36.9874 23.3001 36.9374 23.5876 36.5749C23.7251 36.4124 24.1001 35.5624 24.4376 34.6999C24.7626 33.8249 25.0751 33.1374 25.1376 33.1499C25.1876 33.1749 25.6751 33.7749 26.2126 34.4999C27.8001 36.6249 28.1126 36.5749 29.4251 33.9624C29.9126 33.0249 30.3251 32.2499 30.3626 32.2499C30.4001 32.2499 30.9626 32.3624 31.6001 32.5124ZM47.1501 49.2499C47.3251 49.3874 47.5001 49.6124 47.5376 49.7499C47.6001 49.9874 47.5501 49.9999 46.1126 49.9999C44.6876 49.9999 44.6001 50.0124 44.3126 50.3124C44.1126 50.4999 44.0001 50.7624 44.0001 50.9999C44.0001 51.2374 44.1126 51.4999 44.3126 51.6874C44.6001 51.9874 44.6626 51.9999 46.5376 51.9999C49.9501 51.9999 53.0001 52.1499 53.0001 52.3124C53.0001 52.6624 52.4001 53.3374 51.8126 53.6249L51.1876 53.9374L45.4376 54.0124C39.8251 54.0874 39.6501 54.0999 38.1876 54.4124C37.3626 54.5999 35.4501 55.1749 33.9376 55.6999C20.6751 60.2874 19.0251 60.6249 16.4001 59.2999C15.8751 59.0249 15.1126 58.4874 14.6001 58.0124C13.6251 57.1124 12.1751 55.2624 12.3376 55.1249C12.3876 55.0749 12.6626 54.9624 12.9376 54.8749C14.3626 54.4249 15.5251 53.5999 16.5376 52.3374C16.8751 51.9124 17.1751 51.5374 17.2001 51.5124C17.2251 51.4874 17.3751 51.6249 17.5251 51.8249C18.7126 53.3374 20.8376 54.2624 22.6876 54.0624C23.2126 54.0124 25.2626 53.3874 28.6501 52.2374C38.3501 48.9499 38.0501 49.0249 42.9501 49.0124C46.6376 48.9999 46.8626 49.0124 47.1501 49.2499Z" fill="#005C6D"/>
<path id="Vector_2" d="M38.3125 40.3125C38.1125 40.5 38 40.7625 38 41C38 41.2375 38.1125 41.5 38.3125 41.6875C38.6 41.9875 38.7 42 40 42C41.3 42 41.4 41.9875 41.6875 41.6875C41.8875 41.5 42 41.2375 42 41C42 40.7625 41.8875 40.5 41.6875 40.3125C41.4 40.0125 41.3 40 40 40C38.7 40 38.6 40.0125 38.3125 40.3125Z" fill="#005C6D"/>
<path id="Vector_3" d="M38.3125 43.3125C38.1125 43.5 38 43.7625 38 44C38 44.2375 38.1125 44.5 38.3125 44.6875C38.6125 45 38.6375 45 41 45C43.3625 45 43.3875 45 43.6875 44.6875C43.8875 44.5 44 44.2375 44 44C44 43.7625 43.8875 43.5 43.6875 43.3125C43.3875 43 43.3625 43 41 43C38.6375 43 38.6125 43 38.3125 43.3125Z" fill="#005C6D"/>
</g>
</g>
</svg>
