<svg width="64" height="64" viewBox="0 0 64 64" fill="none" xmlns="http://www.w3.org/2000/svg">
<g id="delivered-_1_ 1" clip-path="url(#clip0_201_1091)">
<g id="Group">
<path id="Vector" d="M47.4375 1.92489C43.95 2.47489 40.8375 4.29989 38.6 7.09989C37.225 8.82489 36.375 10.5624 35.7875 12.8374C35.4875 14.0249 35.45 14.4249 35.4375 16.1249C35.4375 18.1374 35.575 18.9874 36.15 20.6624C36.4375 21.4999 37.1 22.8874 37.575 23.6499C37.7375 23.9124 37.875 24.1499 37.875 24.1874C37.875 24.2124 33.3625 24.2624 27.85 24.2749C18.3875 24.3124 17.7875 24.3249 17.475 24.5374C16.6625 25.0999 16.7 24.7874 16.625 31.8749L16.5625 38.3124L15.5875 40.2249C14.775 41.7874 14.5125 42.2124 14.1 42.5124C13.8125 42.7124 13.55 42.8749 13.5 42.8749C13.45 42.8749 13.3375 42.6249 13.2625 42.3249C13.0875 41.6249 12.5875 41.0249 11.9375 40.7374C11.5125 40.5374 11.1 40.4999 9.125 40.4999C7.1375 40.4999 6.7375 40.5374 6.3 40.7374C5.6625 41.0249 5.1875 41.6249 5 42.4124L4.85 42.9999H3.45C1.9125 42.9999 1.3375 43.1749 0.725 43.8249C0.2 44.3874 0 45.0124 0 46.0374C0 47.1749 0.2625 47.6249 0.9375 47.6249C1.5875 47.6249 1.875 47.1749 1.875 46.1749C1.875 44.9874 2.0375 44.8749 3.625 44.8749H4.875V51.3749V57.8749H3.5875C2.4875 57.8749 2.2625 57.8374 2.0875 57.6499C1.9 57.4499 1.875 56.9874 1.875 53.8249C1.875 51.7624 1.825 50.1374 1.75 50.0124C1.5625 49.6499 0.95 49.4499 0.6 49.6374C0.0125 49.9499 0.0125 49.9749 0 53.9374C0 57.6374 0 57.6999 0.3 58.3374C0.5125 58.7874 0.775 59.0874 1.1375 59.3374C1.6375 59.6624 1.7625 59.6874 3.275 59.7249C4.3875 59.7624 4.875 59.8124 4.875 59.9124C4.875 60.7374 5.6875 61.8749 6.475 62.1499C6.9875 62.3249 11.0625 62.3874 11.65 62.2249C12.0625 62.0999 12.7125 61.5624 13 61.0999L13.2125 60.7374L33.45 60.7499C52.525 60.7499 53.7125 60.7374 54.125 60.5374C54.3625 60.4124 54.6875 60.1249 54.8375 59.8874L55.125 59.4624V44.3749V29.2999L55.8 29.0124C57.5 28.3124 59.825 26.4624 61.0625 24.8124C66.4375 17.6624 64.1375 7.31239 56.2875 3.37489C55.7375 3.09989 55.1125 2.87489 54.9 2.87489C54.2375 2.87489 53.825 3.53739 54.075 4.18739C54.125 4.29989 54.5 4.56239 54.925 4.77489C60.05 7.33739 62.7625 12.3999 61.9875 17.9624C61.3125 22.8124 57.525 26.8999 52.55 28.1499C50.975 28.5499 48.025 28.5374 46.5625 28.1499C43.1375 27.2124 40.2125 24.7999 38.6 21.5624C37.5375 19.4374 37.1125 17.1124 37.3625 14.8124C37.7 11.8374 38.975 9.21239 41.1 7.14989C43.5625 4.76239 46.775 3.56239 50.4375 3.64989C51.875 3.68739 52.0625 3.61239 52.2 2.92489C52.3 2.39989 51.95 1.99989 51.25 1.86239C50.4625 1.71239 48.6125 1.74989 47.4375 1.92489ZM26.75 30.4249C26.75 32.7124 26.7875 34.7624 26.825 34.9874C26.925 35.4374 27.4 35.9624 27.7875 36.0249C28.325 36.1124 28.7875 35.8749 30.375 34.6249C31.2625 33.9374 32.075 33.3374 32.175 33.2999C32.3 33.2499 32.8875 33.6374 33.775 34.3374C34.55 34.9499 35.375 35.5749 35.6 35.7374C36.35 36.2624 37.3375 36.0124 37.6125 35.2249C37.7 34.9749 37.75 33.2874 37.75 30.5499V26.2499H38.7H39.65L40.3625 26.8499C41.7875 28.0749 43.525 29.0874 45.1625 29.6124L46 29.8999V33.6374C46 37.2124 46.0125 37.3874 46.25 37.6249C46.5875 37.9624 47.2625 37.9499 47.575 37.6124C47.8 37.3749 47.8125 37.0874 47.85 33.8124L47.8875 30.2749L49.1 30.3374C50.175 30.3999 51.225 30.3124 52.7875 30.0499L53.25 29.9624V44.4249V58.8749H50.5625H47.875V49.6999C47.875 40.6124 47.875 40.5249 47.6125 40.1999C47.2875 39.7874 46.625 39.7499 46.25 40.1249C46 40.3749 46 40.5374 46 49.6249V58.8749H38.6625H31.3125V57.8124V56.7499H33.2625C35.375 56.7499 35.7625 56.6624 36.4875 56.0499C37.075 55.5624 37.4125 54.8124 37.425 53.9999C37.4375 53.6249 37.3875 53.1874 37.3375 53.0374C37.25 52.7999 37.3125 52.7249 37.7375 52.5124C38.6375 52.0499 39.15 51.1499 39.15 49.9874C39.15 49.1749 38.8625 48.5124 38.225 47.9124C37.6625 47.3624 37.025 47.1249 36.1625 47.1249H35.425L35.4375 46.1499C35.4375 45.0874 35.2875 44.7124 34.6375 44.0499C33.7625 43.1624 33.9875 43.1874 27.1 43.1499L20.9 43.1124L21.475 41.9624C22.05 40.8499 22.0625 40.7874 22.0625 39.6874C22.0625 38.6749 22.025 38.4999 21.6875 37.8874C21.075 36.7874 20.0125 36.0374 19.0375 36.0124L18.625 35.9999V31.1249V26.2499H22.6875H26.75V30.4249ZM35.875 29.8749C35.875 31.8624 35.85 33.4999 35.8125 33.4999C35.775 33.4999 35.225 33.0874 34.575 32.5749C32.7375 31.0999 32.35 30.9249 31.7125 31.2749C31.5625 31.3499 30.8375 31.8874 30.1 32.4624C29.375 33.0249 28.7375 33.4999 28.7 33.4999C28.6625 33.4999 28.625 31.8624 28.625 29.8749V26.2499H32.25H35.875V29.8749ZM19.475 38.0749C19.875 38.3499 20.25 39.1624 20.25 39.7249C20.25 40.0499 20.05 40.6249 19.625 41.4874C18.9125 42.9499 18.825 43.5499 19.275 44.1999C19.8 44.9624 19.4875 44.9374 26.5375 44.9999L33.025 45.0624L33.325 45.4124C33.7 45.8624 33.7 46.2624 33.325 46.7124L33.025 47.0624L28.875 47.1249C24.95 47.1874 24.725 47.1999 24.55 47.4249C24.2875 47.7874 24.325 48.4249 24.6375 48.6999C24.8875 48.9249 25.225 48.9374 30.8125 48.9999C36.4 49.0624 36.7375 49.0749 36.9875 49.2999C37.1625 49.4624 37.25 49.6874 37.25 49.9874C37.2375 51.0249 37.3625 50.9999 30.6875 50.9999H24.8625L24.5625 51.3124C24.3875 51.4749 24.25 51.7624 24.25 51.9374C24.25 52.1124 24.3875 52.3999 24.5625 52.5624L24.8625 52.8749H29.875H34.9L35.2625 53.2374C35.4625 53.4374 35.625 53.6999 35.625 53.8124C35.625 54.1749 35.25 54.7499 34.9625 54.8124C34.8125 54.8499 32.25 54.8874 29.275 54.9124L23.85 54.9374L23.6125 55.2374C23.3375 55.5874 23.3 56.0999 23.55 56.4499C23.7125 56.6624 23.9375 56.6874 26.3125 56.7499L28.9 56.8124L29.2 57.1624C29.575 57.6124 29.575 58.0124 29.2 58.4624L28.9 58.8124H21.475C17.4 58.8124 13.9125 58.7749 13.7125 58.7124L13.375 58.6249V51.7624V44.8999L13.85 44.7499C15.45 44.2249 16.05 43.5249 17.7625 40.0874C18.675 38.2624 18.9125 37.8874 19.125 37.8749C19.1625 37.8749 19.325 37.9624 19.475 38.0749ZM11.3 42.5749C11.475 42.7499 11.5 43.7249 11.5 51.4249C11.5 57.9874 11.4625 60.1124 11.35 60.2249C11.25 60.3249 10.5625 60.3749 9.1 60.3749C7.1625 60.3749 7 60.3624 6.875 60.1374C6.8 59.9749 6.75 56.9874 6.75 51.3249C6.75 43.7124 6.775 42.7499 6.95 42.5749C7.2375 42.2749 11.0125 42.2749 11.3 42.5749Z" fill="#005C6D"/>
<path id="Vector_2" d="M55.9625 10.3998C55.7875 10.5623 54 12.5373 51.9875 14.8123C49.975 17.0748 48.0875 19.1998 47.7875 19.5248L47.25 20.1123L45.25 17.8623C43.3875 15.7873 43.2 15.6248 42.8125 15.6248C42.3 15.6248 41.875 16.0248 41.875 16.5123C41.875 16.8873 41.9375 16.9748 44.4 19.7623C45.35 20.8373 46.2625 21.7748 46.4375 21.8498C46.975 22.0998 47.7875 22.0373 48.2375 21.7123C48.4625 21.5623 50.6375 19.1998 53.075 16.4498C57.025 11.9998 57.5 11.4248 57.5 11.0498C57.5 10.2123 56.5875 9.82481 55.9625 10.3998Z" fill="#005C6D"/>
</g>
</g>
<defs>
<clipPath id="clip0_201_1091">
<rect width="64" height="64" fill="white"/>
</clipPath>
</defs>
</svg>
