<svg width="64" height="64" viewBox="0 0 64 64" fill="none" xmlns="http://www.w3.org/2000/svg">
<g id="shipped 1" clip-path="url(#clip0_201_1095)">
<g id="Group">
<path id="Vector" d="M5.56262 11.9249C5.05012 12.1624 4.52512 12.7499 4.37512 13.2624C4.18762 13.9124 4.21262 32.0624 4.40012 32.4124C4.73762 33.0624 5.43762 33.1874 5.93762 32.6874L6.25012 32.3874V23.0624V13.7499H25.5626H44.8751V22.9499C44.8751 29.6999 44.9126 32.2124 45.0251 32.4124C45.3626 33.0624 46.0626 33.1874 46.5626 32.6874C46.8251 32.4374 46.8751 32.2624 46.8751 31.6249V30.8749H53.0376C56.7751 30.8749 59.3626 30.9249 59.6376 30.9999C60.2751 31.1749 60.8626 31.5999 61.3376 32.2249C62.0126 33.1124 61.9876 33.1249 60.0626 33.1249C58.4251 33.1249 58.3501 33.1374 58.0626 33.4374C57.7626 33.7249 57.7501 33.8124 57.7501 35.2624C57.7501 37.1874 57.8876 37.6374 58.6876 38.4374C59.4126 39.1749 59.9626 39.3749 61.1751 39.3749H62.0001V41.6249V43.8749H60.7126H59.4251L59.0376 43.0874C56.7251 38.4249 50.0126 38.4374 47.7126 43.0999C47.4501 43.6124 47.2501 43.8749 47.1251 43.8499C46.9626 43.8124 46.9251 43.2499 46.8751 39.7874C46.8126 35.3624 46.8251 35.4624 46.0376 35.2999C45.7001 35.2374 45.5751 35.2874 45.2501 35.5999L44.8751 35.9749V39.9249V43.8749H34.5001H24.1376L23.8751 43.2874C22.7751 40.7874 19.9751 39.2374 17.2251 39.6249C15.2501 39.8999 13.2626 41.3374 12.4376 43.0999L12.0626 43.8749L9.18762 43.8499L6.31262 43.8124V42.6874V41.5624L8.71262 41.5249L11.1126 41.4999L11.3626 41.1624C11.7126 40.7374 11.6876 40.3374 11.3251 39.9124L11.0251 39.5624H5.81262H0.600123L0.300123 39.9124C-0.0623771 40.3374 -0.0873771 40.7374 0.262623 41.1749L0.512623 41.4999H2.38762H4.25012V42.7749C4.25012 43.7499 4.31262 44.1874 4.48762 44.5624C5.02512 45.7374 5.46262 45.8624 8.93762 45.8749H11.6876L11.8501 46.8374C12.6876 52.1124 19.2251 54.0624 22.8001 50.1124C23.5126 49.3249 24.2251 47.8874 24.3251 47.0374C24.3626 46.7124 24.4126 46.3124 24.4501 46.1499L24.5001 45.8749H35.7251H46.9501L47.1376 46.8999C47.4001 48.2499 47.8626 49.2124 48.7001 50.1249C50.0751 51.5999 51.3626 52.1624 53.3751 52.1624C55.3876 52.1624 56.6751 51.5999 58.0501 50.1249C58.9001 49.1874 59.3501 48.2999 59.6001 46.9499L59.8001 45.8874L61.6001 45.8499L63.4001 45.8124L63.7001 45.4499L64.0126 45.0999L63.9751 39.0124C63.9376 33.0999 63.9251 32.9249 63.6626 32.2749C63.0501 30.7749 61.6376 29.4624 60.2376 29.1124C59.8126 28.9999 59.5626 28.8624 59.4876 28.6874C59.4251 28.5499 59.0376 27.0749 58.6251 25.3999L57.8751 22.3624L58.2626 22.0374L58.6501 21.6999L58.6001 20.3874C58.5626 19.2499 58.5001 18.9749 58.2126 18.3999C57.8001 17.6249 57.0751 16.8499 56.4126 16.5249C55.5251 16.0749 54.7251 15.9999 50.7501 15.9999H46.9001L46.8501 14.5249C46.8126 13.2124 46.7751 13.0124 46.5126 12.6374C46.3501 12.4124 45.9876 12.1124 45.7001 11.9874C45.2126 11.7624 44.4376 11.7499 25.5626 11.7624C9.43762 11.7624 5.87512 11.7874 5.56262 11.9249ZM55.4626 18.2749C56.0001 18.5749 56.5001 19.2499 56.5876 19.7999L56.6626 20.2499H51.7626H46.8751V19.1124V17.9874L50.9751 18.0249C54.5876 18.0624 55.1126 18.0874 55.4626 18.2749ZM56.6001 25.5249C57.0251 27.2624 57.3751 28.7249 57.3751 28.7749C57.3751 28.8374 55.0126 28.8749 52.1251 28.8749H46.8751V25.6249V22.3749H51.3501H55.8126L56.6001 25.5249ZM62.0001 36.2499V37.3749H61.2001C60.5126 37.3749 60.3626 37.3374 60.0751 37.0499C59.7876 36.7624 59.7501 36.6124 59.7501 35.9249V35.1249H60.8751H62.0001V36.2499ZM19.0626 41.6874C20.1501 41.8624 21.4126 42.8624 21.9876 43.9749C22.5501 45.0624 22.5501 46.6749 21.9876 47.7624C20.3376 51.0249 15.8251 51.0249 14.2251 47.7749C13.8501 47.0249 13.8126 46.8374 13.8126 45.8749C13.8251 44.9749 13.8751 44.6999 14.1626 44.0999C14.7751 42.8374 16.0501 41.8499 17.3626 41.6249C17.9376 41.5249 18.1126 41.5374 19.0626 41.6874ZM54.0626 41.6374C55.9876 41.9874 57.4501 43.5249 57.6876 45.4374C57.8501 46.7374 57.1501 48.4374 56.1251 49.2499C53.6001 51.2499 49.9751 50.0124 49.1751 46.8874C48.5751 44.5249 50.2126 42.0499 52.6501 41.6374C53.0126 41.5749 53.3126 41.5249 53.3251 41.5124C53.3251 41.5124 53.6626 41.5624 54.0626 41.6374Z" fill="#005C6D"/>
<path id="Vector_2" d="M17.0251 44.1123C15.5001 45.0748 15.8376 47.3498 17.6001 47.8873C18.6001 48.1873 19.8876 47.4248 20.0751 46.4248C20.3376 44.9873 19.5876 43.9873 18.1876 43.8998C17.6001 43.8748 17.3501 43.9123 17.0251 44.1123Z" fill="#005C6D"/>
<path id="Vector_3" d="M52.3875 44.0874C51.15 44.6999 50.975 46.6249 52.075 47.4874C52.9375 48.1624 54.05 48.0999 54.825 47.3249C55.5375 46.6124 55.625 45.4999 55.0125 44.6499C54.5 43.9124 53.275 43.6499 52.3875 44.0874Z" fill="#005C6D"/>
<path id="Vector_4" d="M29.1002 25.9625L24.5002 30.5625L22.0877 28.1625C20.5627 26.6375 19.5627 25.7375 19.3377 25.675C18.6377 25.5125 17.9752 26.325 18.2502 27C18.3252 27.1875 19.6752 28.6125 21.2377 30.175C23.8252 32.75 24.1252 33 24.5127 33C24.9002 33 25.3252 32.6125 30.0252 27.9C34.6752 23.2625 35.1252 22.775 35.1252 22.4C35.1252 21.85 34.6502 21.375 34.1127 21.375C33.7377 21.375 33.2502 21.825 29.1002 25.9625Z" fill="#005C6D"/>
<path id="Vector_5" d="M2.48753 35.6125C2.03753 36.0625 2.02503 36.525 2.43753 36.9375L2.73753 37.25H9.48753C13.2 37.25 16.325 37.2125 16.4375 37.175C16.6625 37.0875 17 36.4875 17 36.1875C17 36.075 16.8375 35.8125 16.6375 35.6125L16.275 35.25H9.56253H2.85003L2.48753 35.6125Z" fill="#005C6D"/>
<path id="Vector_6" d="M26.2876 39.6249C25.8626 39.7999 25.5876 40.2999 25.6876 40.7499C25.8626 41.5249 25.5251 41.4999 34.2001 41.4999H42.1126L42.3626 41.1749C42.7126 40.7374 42.6876 40.3374 42.3251 39.9124L42.0251 39.5624L34.2876 39.5374C29.9751 39.5249 26.4376 39.5624 26.2876 39.6249Z" fill="#005C6D"/>
</g>
</g>
<defs>
<clipPath id="clip0_201_1095">
<rect width="64" height="64" fill="white"/>
</clipPath>
</defs>
</svg>
