<svg width="16" height="17" viewBox="0 0 16 17" fill="none" xmlns="http://www.w3.org/2000/svg">
<g id="u:apps">
<path id="Vector" d="M6.66683 9.16668H2.00016C1.82335 9.16668 1.65378 9.23692 1.52876 9.36194C1.40373 9.48696 1.3335 9.65653 1.3335 9.83334V14.5C1.3335 14.6768 1.40373 14.8464 1.52876 14.9714C1.65378 15.0964 1.82335 15.1667 2.00016 15.1667H6.66683C6.84364 15.1667 7.01321 15.0964 7.13823 14.9714C7.26326 14.8464 7.3335 14.6768 7.3335 14.5V9.83334C7.3335 9.65653 7.26326 9.48696 7.13823 9.36194C7.01321 9.23692 6.84364 9.16668 6.66683 9.16668ZM6.00016 13.8333H2.66683V10.5H6.00016V13.8333ZM14.0002 1.83334H9.3335C9.15669 1.83334 8.98712 1.90358 8.86209 2.02861C8.73707 2.15363 8.66683 2.3232 8.66683 2.50001V7.16668C8.66683 7.34349 8.73707 7.51306 8.86209 7.63808C8.98712 7.76311 9.15669 7.83334 9.3335 7.83334H14.0002C14.177 7.83334 14.3465 7.76311 14.4716 7.63808C14.5966 7.51306 14.6668 7.34349 14.6668 7.16668V2.50001C14.6668 2.3232 14.5966 2.15363 14.4716 2.02861C14.3465 1.90358 14.177 1.83334 14.0002 1.83334ZM13.3335 6.50001H10.0002V3.16668H13.3335V6.50001ZM14.0002 9.16668H9.3335C9.15669 9.16668 8.98712 9.23692 8.86209 9.36194C8.73707 9.48696 8.66683 9.65653 8.66683 9.83334V14.5C8.66683 14.6768 8.73707 14.8464 8.86209 14.9714C8.98712 15.0964 9.15669 15.1667 9.3335 15.1667H14.0002C14.177 15.1667 14.3465 15.0964 14.4716 14.9714C14.5966 14.8464 14.6668 14.6768 14.6668 14.5V9.83334C14.6668 9.65653 14.5966 9.48696 14.4716 9.36194C14.3465 9.23692 14.177 9.16668 14.0002 9.16668ZM13.3335 13.8333H10.0002V10.5H13.3335V13.8333ZM6.66683 1.83334H2.00016C1.82335 1.83334 1.65378 1.90358 1.52876 2.02861C1.40373 2.15363 1.3335 2.3232 1.3335 2.50001V7.16668C1.3335 7.34349 1.40373 7.51306 1.52876 7.63808C1.65378 7.76311 1.82335 7.83334 2.00016 7.83334H6.66683C6.84364 7.83334 7.01321 7.76311 7.13823 7.63808C7.26326 7.51306 7.3335 7.34349 7.3335 7.16668V2.50001C7.3335 2.3232 7.26326 2.15363 7.13823 2.02861C7.01321 1.90358 6.84364 1.83334 6.66683 1.83334ZM6.00016 6.50001H2.66683V3.16668H6.00016V6.50001Z" fill="#1CA6AB"/>
</g>
</svg>
